<?xml version="1.0" encoding="iso-8859-1"?>
<!-- Generator: Adobe Illustrator 19.0.0, SVG Export Plug-In . SVG Version: 6.00 Build 0)  -->
<svg version="1.1" id="Capa_1" xmlns="http://www.w3.org/2000/svg" xmlns:xlink="http://www.w3.org/1999/xlink" x="0px" y="0px"
	 viewBox="0 0 512 512" style="enable-background:new 0 0 512 512;" xml:space="preserve">
<rect x="52.966" y="114.759" style="fill:#556080;" width="406.069" height="353.103"/>
<circle style="fill:#E7ECED;" cx="256" cy="291.31" r="132.414"/>
<path style="fill:#1081E0;" d="M256,317.793c-31.779,0-61.793,7.945-84.745,21.186c16.772,29.131,48.552,49.434,84.745,49.434
	s67.972-20.303,84.745-49.434C317.793,325.738,287.779,317.793,256,317.793z"/>
<path style="fill:#C6E2F7;" d="M308.966,291.31c0-21.186,14.124-37.959,34.428-43.255c-15.89-31.779-49.435-53.848-87.393-53.848
	c-53.848,0-97.103,43.255-97.103,97.103c0,17.655,4.414,33.545,12.359,47.669c22.952-13.241,52.966-21.186,84.745-21.186
	s61.793,7.945,84.745,21.186c-1.766,3.531,0,0.883,2.648-5.297C323.09,329.269,308.966,312.497,308.966,291.31z"/>
<path style="fill:#556080;" d="M353.103,291.31c0-15.007-3.531-30.014-9.71-43.255c-20.303,5.297-34.428,22.069-34.428,43.255
	c0,21.186,14.124,37.959,34.428,43.255C349.572,321.324,353.103,306.317,353.103,291.31z"/>
<path style="fill:#7383BF;" d="M441.379,0H70.621c-9.71,0-17.655,7.945-17.655,17.655v105.931h406.069V17.655
	C459.034,7.945,451.09,0,441.379,0z"/>
<g>
	<path style="fill:#DC691D;" d="M211.862,52.966h-26.483c-5.297,0-8.828-3.531-8.828-8.828s3.531-8.828,8.828-8.828h26.483
		c5.297,0,8.828,3.531,8.828,8.828S217.159,52.966,211.862,52.966z"/>
	<path style="fill:#DC691D;" d="M211.862,88.276h-26.483c-5.297,0-8.828-3.531-8.828-8.828s3.531-8.828,8.828-8.828h26.483
		c5.297,0,8.828,3.531,8.828,8.828S217.159,88.276,211.862,88.276z"/>
</g>
<path style="fill:#7383BF;" d="M441.379,512H70.621c-9.71,0-17.655-7.945-17.655-17.655v-35.31h406.069v35.31
	C459.034,504.055,451.09,512,441.379,512z"/>
<path style="fill:#95B3C6;" d="M194.207,300.138c-5.297,0-8.828-3.531-8.828-8.828c0-38.841,31.779-70.621,70.621-70.621
	c5.297,0,8.828,3.531,8.828,8.828s-3.531,8.828-8.828,8.828c-29.131,0-52.966,23.834-52.966,52.965
	C203.034,296.607,199.503,300.138,194.207,300.138z"/>
<g>
	<path style="fill:#C6E2F7;" d="M353.103,52.966h-17.655c-5.297,0-8.828-3.531-8.828-8.828s3.531-8.828,8.828-8.828h17.655
		c5.297,0,8.828,3.531,8.828,8.828S358.4,52.966,353.103,52.966z"/>
	<path style="fill:#C6E2F7;" d="M353.103,88.276h-17.655c-5.297,0-8.828-3.531-8.828-8.828s3.531-8.828,8.828-8.828h17.655
		c5.297,0,8.828,3.531,8.828,8.828S358.4,88.276,353.103,88.276z"/>
</g>
<g>
	<path style="fill:#61B872;" d="M414.897,88.276h-17.655c-5.297,0-8.828-3.531-8.828-8.828s3.531-8.828,8.828-8.828h17.655
		c5.297,0,8.828,3.531,8.828,8.828S420.193,88.276,414.897,88.276z"/>
	<path style="fill:#61B872;" d="M414.897,52.966h-17.655c-5.297,0-8.828-3.531-8.828-8.828s3.531-8.828,8.828-8.828h17.655
		c5.297,0,8.828,3.531,8.828,8.828S420.193,52.966,414.897,52.966z"/>
</g>
<circle style="fill:#EBBA16;" cx="123.586" cy="61.793" r="26.483"/>
<circle style="fill:#DD352E;" cx="273.655" cy="61.793" r="26.483"/>
<g>
</g>
<g>
</g>
<g>
</g>
<g>
</g>
<g>
</g>
<g>
</g>
<g>
</g>
<g>
</g>
<g>
</g>
<g>
</g>
<g>
</g>
<g>
</g>
<g>
</g>
<g>
</g>
<g>
</g>
</svg>
